<svg xmlns="http://www.w3.org/2000/svg" x="0px" y="0px"
                            width="20" height="20"
                            viewBox="0 0 172 172"
                            style=" fill:#000000;"><g fill="none" fill-rule="nonzero" stroke="none" stroke-width="1" stroke-linecap="butt" stroke-linejoin="miter" stroke-miterlimit="10" stroke-dasharray="" stroke-dashoffset="0" font-family="none" font-weight="none" font-size="none" text-anchor="none" style="mix-blend-mode: normal"><path d="M0,172v-172h172v172z" fill="none"></path><g id="original-icon" fill="#95a5a6"><path d="M142.23077,0c-9.12199,0 -16.53846,7.41647 -16.53846,16.53846c0,0.85276 0.07753,1.65385 0.20673,2.48077c-39.97656,-12.09375 -57.05769,36.66887 -69.875,46.10096c-11.73197,8.63101 -43.51683,0 -47.96154,20.25962c-7.57151,13.25661 16.20253,41.21695 53.33654,63.05288c3.82452,9.92308 13.33413,16.95192 24.60096,16.95192c2.66166,0 5.21996,-0.51683 7.64904,-1.24038c13.64423,5.14243 26.04808,7.85577 35.55769,7.85577c8.63101,0 14.88462,-2.32572 17.57212,-7.02885c6.77044,-8.03666 8.68269,-15.96995 -3.92788,-36.59135c-12.58474,-20.56971 35.91947,-67.21334 5.78846,-96.54327c5.94351,-2.50661 10.12981,-8.45012 10.12981,-15.29808c0,-9.12199 -7.41647,-16.53846 -16.53846,-16.53846zM25.63462,89.10096c14.91046,0 37.9351,8.01082 60.36538,20.87981c1.78305,1.03365 3.28185,2.06731 4.96154,3.10096c-1.60216,-0.3101 -3.28185,-0.62019 -4.96154,-0.62019c-13.30829,0 -24.16166,9.76803 -26.04808,22.53365c-30.88041,-19.79447 -44.16286,-39.64062 -42.79327,-44.24038c0.38762,-0.41346 2.89423,-1.65385 8.47596,-1.65385zM108.32692,124.65865c21.37079,16.38342 30.51863,31.08714 29.35577,34.9375c-0.38762,0.41346 -2.86839,1.65385 -8.47596,1.65385c-6.58954,0 -14.72956,-1.49879 -23.77404,-4.34135c4.36719,-4.72897 7.02885,-11.0601 7.02885,-17.98558c0,-5.21995 -1.52464,-10.15565 -4.13462,-14.26442z"></path></g></g></svg> 