<svg xmlns="http://www.w3.org/2000/svg" x="0px" y="0px"
width="20" height="20"
viewBox="0 0 172 172"
style=" fill:#000000;"><g fill="none" fill-rule="nonzero" stroke="none" stroke-width="1" stroke-linecap="butt" stroke-linejoin="miter" stroke-miterlimit="10" stroke-dasharray="" stroke-dashoffset="0" font-family="none" font-weight="none" font-size="none" text-anchor="none" style="mix-blend-mode: normal"><path d="M0,172v-172h172v172z" fill="none"></path><g fill="#95a5a6"><path d="M125.27885,19.22596c-1.36959,0.02584 -2.73918,0.28426 -4.13462,0.62019c-10.59495,1.98978 -17.28786,11.93871 -15.29808,22.53365c5.29747,-4.6256 12.61058,-9.30288 22.53365,-9.30288c7.93329,0 13.17909,1.9381 17.15865,3.92788c0,-0.67187 0.05169,-1.1887 -0.62019,-1.86058c-1.73137,-9.2512 -10.05228,-16.15084 -19.63942,-15.91827zM46.30769,20.05288c-9.14783,-0.23257 -17.49459,6.40865 -19.22596,15.09135c-0.67187,0.67188 -0.62019,1.18871 -0.62019,1.86058c3.97957,-1.98978 9.8714,-3.92788 17.15865,-3.92788c9.92308,0 17.28786,4.6256 21.91346,9.92308c1.98978,-10.59495 -4.70312,-20.54387 -15.29808,-22.53365c-1.31791,-0.33594 -2.60997,-0.38762 -3.92788,-0.41346zM43.62019,39.69231c-16.53846,0 -20.51803,9.17368 -23.15385,17.77885c-4.6256,14.54868 -17.15865,48.99519 -17.15865,48.99519c0,0 0.67188,-0.64603 0.82692,-0.82692c-2.60997,5.01322 -4.13462,10.72416 -4.13462,16.74519c0,20.02704 16.35757,36.38462 36.38462,36.38462c20.02704,0 36.38462,-16.35757 36.38462,-36.38462c0,-18.76081 -14.36779,-34.31731 -32.66346,-36.17788c21.39663,1.13702 28.29628,11.4994 32.66346,19.63942c0,7.28726 5.94351,13.23077 13.23077,13.23077c7.28726,0 13.23077,-5.94351 13.23077,-13.23077c4.36719,-8.14003 11.26683,-18.5024 32.66346,-19.63942c-18.29567,1.86058 -32.66346,17.41707 -32.66346,36.17788c0,20.02704 16.35757,36.38462 36.38462,36.38462c20.02704,0 36.38462,-16.35757 36.38462,-36.38462c0,-6.02103 -1.52464,-11.73197 -4.13462,-16.74519c0.15505,0.18089 0.82692,0.82692 0.82692,0.82692c0,0 -12.53305,-34.44651 -17.15865,-48.99519c-2.63581,-7.93329 -6.61538,-17.77885 -23.15385,-17.77885c-17.85637,0 -24.47176,21.75842 -29.76923,17.77885c-3.30769,-3.30769 -7.98497,-4.54808 -12.61058,-4.54808c-4.6256,0 -9.30288,1.24038 -12.61058,4.54808c-5.29747,3.97957 -11.91286,-17.77885 -29.76923,-17.77885zM36.38462,99.23077c12.86899,0 23.15385,10.28486 23.15385,23.15385c0,12.86899 -10.28485,23.15385 -23.15385,23.15385c-12.86899,0 -23.15385,-10.28485 -23.15385,-23.15385c0,-12.86899 10.28486,-23.15385 23.15385,-23.15385zM135.61538,99.23077c12.86899,0 23.15385,10.28486 23.15385,23.15385c0,12.86899 -10.28485,23.15385 -23.15385,23.15385c-12.86899,0 -23.15385,-10.28485 -23.15385,-23.15385c0,-12.86899 10.28486,-23.15385 23.15385,-23.15385z"></path></g></g></svg>