<svg xmlns="http://www.w3.org/2000/svg" x="0px" y="0px"
width="22" height="22"
viewBox="0 0 172 172"
style=" fill:#000000;"><g fill="none" fill-rule="nonzero" stroke="none" stroke-width="1" stroke-linecap="butt" stroke-linejoin="miter" stroke-miterlimit="10" stroke-dasharray="" stroke-dashoffset="0" font-family="none" font-weight="none" font-size="none" text-anchor="none" style="mix-blend-mode: normal"><path d="M0,172v-172h172v172z" fill="none"></path><g id="original-icon" fill="#95a5a6"><path d="M85.95969,10.32c-0.43,0 -0.86,0.09406 -1.26312,0.25531l-68.8,28.09781c-0.01344,0.01344 -0.04031,0.01344 -0.05375,0.02687c-0.04031,0.01344 -0.06719,0.02688 -0.09406,0.05375c-0.06719,0.02688 -0.13437,0.05375 -0.20156,0.09406c-0.04031,0.01344 -0.08062,0.04031 -0.12094,0.06719c-0.06719,0.04031 -0.12094,0.08063 -0.18812,0.1075c-0.01344,0.02688 -0.04031,0.04031 -0.05375,0.05375c-0.08063,0.05375 -0.14781,0.1075 -0.215,0.16125c-0.01344,0.01344 -0.04031,0.02688 -0.05375,0.05375c-0.06719,0.05375 -0.14781,0.13438 -0.215,0.20156c-0.06719,0.08062 -0.13438,0.14781 -0.215,0.22844c-0.01344,0.04031 -0.04031,0.06719 -0.05375,0.09406c-0.05375,0.06719 -0.09406,0.13437 -0.13438,0.215c-0.01344,0 -0.01344,0.01344 -0.02687,0.01344c-0.05375,0.09406 -0.1075,0.18813 -0.16125,0.28219c0,0.01344 0,0.02688 0,0.04031c-0.05375,0.08063 -0.08063,0.17469 -0.12094,0.26875c0,0.01344 -0.01344,0.02688 -0.01344,0.04031c-0.04031,0.09406 -0.06719,0.20156 -0.1075,0.29562c0,0.01344 0,0.02688 0,0.04031c-0.02687,0.09406 -0.04031,0.18813 -0.05375,0.26875c-0.01344,0.04031 -0.01344,0.06719 -0.02687,0.09406c0,0.09406 -0.01344,0.18812 -0.02688,0.28219c0,0.04031 0,0.08063 0,0.1075c0,0.04031 0,0.06719 0,0.09406c0,0.02687 0,0.04031 0,0.06719v84.77719c0,1.3975 0.84656,2.66063 2.13656,3.18469l68.8,28.09781c0.41656,0.17469 0.86,0.25531 1.30344,0.25531c0.45688,0 0.88688,-0.08062 1.30344,-0.25531l68.8,-28.08437c1.29,-0.5375 2.13656,-1.80063 2.13656,-3.19813v-84.84437c0,-0.26875 -0.02687,-0.5375 -0.09406,-0.79281c-0.01344,-0.04031 -0.01344,-0.06719 -0.02687,-0.09406c-0.06719,-0.22844 -0.14781,-0.45687 -0.25531,-0.67187c-0.02687,-0.02688 -0.04031,-0.06719 -0.05375,-0.09406c-0.12094,-0.215 -0.25531,-0.41656 -0.41656,-0.60469c-0.01344,-0.02688 -0.02687,-0.04031 -0.02687,-0.04031c-0.01344,-0.01344 -0.02688,-0.02687 -0.04031,-0.04031c-0.17469,-0.18812 -0.38969,-0.36281 -0.60469,-0.51062c-0.18813,-0.13438 -0.40313,-0.24188 -0.61813,-0.33594l-0.13437,-0.05375l-68.66563,-28.04406c-0.43,-0.17469 -0.88687,-0.25531 -1.34375,-0.25531zM86,17.46875l59.68938,24.38906l-59.68938,24.36219l-59.68937,-24.36219zM20.64,46.9775l61.92,25.27594v77.42688l-61.92,-25.28938z"></path></g></g></svg>