<svg xmlns="http://www.w3.org/2000/svg" x="0px" y="0px" width="24" height="24"
viewBox="0 0 172 172"
style=" fill:#000000;"><g transform=""><g fill="none" fill-rule="nonzero" stroke="none" stroke-width="1" stroke-linecap="butt" stroke-linejoin="miter" stroke-miterlimit="10" stroke-dasharray="" stroke-dashoffset="0" font-family="none" font-weight="none" font-size="none" text-anchor="none" style="mix-blend-mode: normal"><path d="M0,172v-172h172v172z" fill="none"></path><g id="original-icon" fill="#95a5a6"><path d="M35.83333,21.5c-7.90483,0 -14.33333,6.4285 -14.33333,14.33333v28.66667c0,7.90483 6.4285,14.33333 14.33333,14.33333h28.66667c7.90483,0 14.33333,-6.4285 14.33333,-14.33333v-28.66667c0,-7.90483 -6.4285,-14.33333 -14.33333,-14.33333zM107.5,21.5c-7.90483,0 -14.33333,6.4285 -14.33333,14.33333v28.66667c0,7.90483 6.4285,14.33333 14.33333,14.33333h28.66667c7.90483,0 14.33333,-6.4285 14.33333,-14.33333v-28.66667c0,-7.90483 -6.4285,-14.33333 -14.33333,-14.33333zM35.83333,93.16667c-7.90483,0 -14.33333,6.4285 -14.33333,14.33333v28.66667c0,7.90483 6.4285,14.33333 14.33333,14.33333h28.66667c7.90483,0 14.33333,-6.4285 14.33333,-14.33333v-28.66667c0,-7.90483 -6.4285,-14.33333 -14.33333,-14.33333zM107.5,93.16667c-7.90483,0 -14.33333,6.4285 -14.33333,14.33333v28.66667c0,7.90483 6.4285,14.33333 14.33333,14.33333h28.66667c7.90483,0 14.33333,-6.4285 14.33333,-14.33333v-28.66667c0,-7.90483 -6.4285,-14.33333 -14.33333,-14.33333z"></path></g><path d="" fill="none"></path><path d="" fill="none"></path><path d="" fill="none"></path></g></g></svg>