<svg xmlns="http://www.w3.org/2000/svg" x="0px" y="0px"
                            width="24" height="24"
                            viewBox="0 0 172 172"
                            style=" fill:#000000;"><g fill="none" fill-rule="nonzero" stroke="none" stroke-width="1" stroke-linecap="butt" stroke-linejoin="miter" stroke-miterlimit="10" stroke-dasharray="" stroke-dashoffset="0" font-family="none" font-weight="none" font-size="none" text-anchor="none" style="mix-blend-mode: normal"><path d="M0,172v-172h172v172z" fill="none"></path><g fill="#ffffff"><path d="M86,14.33333c-11.87517,0 -21.5,9.62483 -21.5,21.5v43c0,11.87517 9.62483,21.5 21.5,21.5c11.87517,0 21.5,-9.62483 21.5,-21.5v-43c0,-11.87517 -9.62483,-21.5 -21.5,-21.5zM43.62988,78.83333c-4.343,0 -7.841,3.85365 -7.13867,8.14649c3.5108,21.49797 20.70692,38.35796 42.34212,41.46028v14.89323c0,3.956 3.21067,7.16667 7.16667,7.16667c3.956,0 7.16667,-3.21067 7.16667,-7.16667v-14.89323c21.63521,-3.10233 38.83133,-19.96231 42.34212,-41.46028c0.70233,-4.29283 -2.79567,-8.14649 -7.13867,-8.14649c-3.54033,0 -6.45985,2.60553 -7.05469,6.10286c-2.9025,16.87751 -17.60659,29.73047 -35.31543,29.73047c-17.70883,0 -32.41293,-12.85297 -35.31543,-29.73047c-0.59483,-3.49733 -3.50719,-6.10286 -7.05469,-6.10286z"></path></g></g></svg>