<svg xmlns="http://www.w3.org/2000/svg" x="0px" y="0px"
width="24" height="24"
viewBox="0 0 172 172"
style=" fill:#000000;"><g fill="none" fill-rule="nonzero" stroke="none" stroke-width="1" stroke-linecap="butt" stroke-linejoin="miter" stroke-miterlimit="10" stroke-dasharray="" stroke-dashoffset="0" font-family="none" font-weight="none" font-size="none" text-anchor="none" style="mix-blend-mode: normal"><path d="M0,172v-172h172v172z" fill="none"></path><g id="original-icon" fill="#95a5a6"><path d="M28.55469,21.40202c-3.95253,0.06178 -7.10881,3.312 -7.05469,7.26465v107.5c0,7.83362 6.49972,14.33333 14.33333,14.33333h107.5c2.58456,0.03655 4.98858,-1.32136 6.29153,-3.55376c1.30295,-2.2324 1.30295,-4.99342 0,-7.22582c-1.30295,-2.2324 -3.70697,-3.59031 -6.29153,-3.55376h-107.5v-107.5c0.02653,-1.93715 -0.73227,-3.80254 -2.10349,-5.17112c-1.37122,-1.36858 -3.23806,-2.12378 -5.17516,-2.09353zM136.02669,50.09668c-1.86189,0.05548 -3.62905,0.83363 -4.92708,2.1696l-23.71159,23.71158l-16.43294,-15.71907c-2.78243,-2.66172 -7.17076,-2.64936 -9.93815,0.028l-28.66667,27.72884c-1.87591,1.77241 -2.6541,4.41649 -2.03739,6.92252c0.61671,2.50602 2.53309,4.487 5.0173,5.18642c2.48421,0.69942 5.15263,0.00929 6.98624,-1.80685l23.71159,-22.94173l16.51693,15.80306c2.81583,2.69295 7.26717,2.64321 10.02213,-0.11198l28.66667,-28.66667c2.11962,-2.06035 2.75694,-5.21064 1.60486,-7.93287c-1.15207,-2.72224 -3.85719,-4.45797 -6.81189,-4.37084z"></path></g></g></svg>