<svg xmlns="http://www.w3.org/2000/svg" x="0px" y="0px"
width="20" height="20"
viewBox="0 0 172 172"
style=" fill:#000000;"><g fill="none" fill-rule="nonzero" stroke="none" stroke-width="1" stroke-linecap="butt" stroke-linejoin="miter" stroke-miterlimit="10" stroke-dasharray="" stroke-dashoffset="0" font-family="none" font-weight="none" font-size="none" text-anchor="none" style="mix-blend-mode: normal"><path d="M0,172v-172h172v172z" fill="none"></path><g id="original-icon" fill="#95a5a6"><path d="M86,6.88c-43.62608,0 -79.12,35.49048 -79.12,79.12c0,43.62952 35.49392,79.12 79.12,79.12c43.62608,0 79.12,-35.49048 79.12,-79.12c0,-43.62952 -35.49392,-79.12 -79.12,-79.12zM113.52,61.92c5.70008,0 10.32,4.61992 10.32,10.32c0,5.70008 -4.61992,10.32 -10.32,10.32c-5.70008,0 -10.32,-4.61992 -10.32,-10.32c0,-5.70008 4.61992,-10.32 10.32,-10.32zM58.48,61.92c5.70008,0 10.32,4.61992 10.32,10.32c0,5.70008 -4.61992,10.32 -10.32,10.32c-5.70008,0 -10.32,-4.61992 -10.32,-10.32c0,-5.70008 4.61992,-10.32 10.32,-10.32zM133.52016,105.19864c-0.74648,1.04232 -18.56224,25.52136 -47.52016,25.52136c-28.95792,0 -46.77368,-24.47904 -47.52016,-25.52136c-1.1008,-1.54456 -0.74304,-3.68768 0.79808,-4.79536c1.54456,-1.10424 3.69456,-0.74992 4.7988,0.7912c0.16168,0.22704 16.5636,22.64552 41.92328,22.64552c25.35968,0 41.7616,-22.41848 41.92328,-22.64208c1.10768,-1.54112 3.2508,-1.89888 4.7988,-0.7912c1.54112,1.10424 1.89888,3.24736 0.79808,4.79192z"></path></g></g></svg>